<svg xmlns="http://www.w3.org/2000/svg" width="468" height="468" preserveAspectRatio="xMidYMid meet" version="1.0" viewBox="0 0 351 351"><g fill="#9038ff" stroke="none"><path fill="#9038ff" d="M2095 3223 c-243 -32 -446 -219 -505 -464 -24 -102 -25 -177 -4 -272 29 -126 81 -220 174 -315 28 -30 50 -55 48 -57 -2 -2 -73 24 -158 57 -290 113 -314 120 -399 116 -62 -2 -89 -9 -141 -35 l-65 -32 -85 39 c-308 141 -499 222 -535 227 -47 6 -98 -15 -115 -47 -7 -13 -10 -129 -10 -337 l2 -317 -47 -90 c-58 -116 -79 -211 -70 -321 22 -244 165 -454 389 -567 33 -17 175 -82 315 -145 141 -64 351 -158 466 -210 116 -52 260 -113 320 -136 109 -41 111 -41 250 -41 127 0 146 2 205 26 36 14 83 36 105 48 22 12 132 72 245 132 368 198 393 212 447 262 79 71 142 165 168 249 32 101 42 304 21 405 -42 203 -182 346 -377 386 l-64 13 -3 231 c-3 254 -6 240 61 221 43 -11 36 -14 189 78 57 34 166 95 243 136 77 41 144 81 149 89 17 28 -3 87 -37 108 -38 24 -79 25 -172 5 -94 -20 -177 -19 -254 3 l-64 18 -40 105 c-51 133 -103 215 -180 285 -127 115 -303 169 -472 147z" transform="translate(0.000000,351.000000) scale(0.100000,-0.100000)"/></g></svg>